<?xml version="1.0" encoding="UTF-8"?><svg id="Figures" xmlns="http://www.w3.org/2000/svg" xmlns:xlink="http://www.w3.org/1999/xlink" viewBox="0 0 328.88 318.74"><defs><style>.cls-1{stroke-linecap:round;}.cls-1,.cls-2{fill:none;stroke:#fff;stroke-miterlimit:10;stroke-width:.46px;}.cls-3{fill:#fff;}.cls-3,.cls-4{stroke-width:0px;}.cls-4{fill:#289187;}</style><symbol id="Computer_back_5" viewBox="0 0 41.05 31.88"><polygon class="cls-3" points="25.81 31.88 15.24 31.88 17.14 13.41 23.91 13.41 25.81 31.88"/><path class="cls-4" d="M15.75,26.92l9.74,1.86-1.44-14c-.94-.84-2.16-1.37-3.52-1.37h0c-1.36,0-2.59.53-3.52,1.37l-1.25,12.14Z"/><rect class="cls-3" x="0" y="0" width="41.05" height="26.82" rx="2.1" ry="2.1"/><path class="cls-4" d="M38.94,0H2.1C.94,0,0,.94,0,2.1v20.97h41.05V2.1c0-1.16-.94-2.1-2.1-2.1Z"/><circle class="cls-4" cx="20.52" cy="24.77" r=".85"/><rect class="cls-3" x="12.1" y="30.59" width="16.85" height="1.29"/><g id="Systems_2"><line class="cls-1" x1="11.34" y1="4.77" x2="11.34" y2="10.97"/><line class="cls-1" x1="20.62" y1="4.77" x2="20.62" y2="10.97"/><line class="cls-1" x1="22.16" y1="4.77" x2="22.16" y2="10.97"/><circle class="cls-2" cx="15.98" cy="7.87" r="3.1"/><circle class="cls-2" cx="26.8" cy="7.87" r="3.1"/><line class="cls-1" x1="11.34" y1="12.74" x2="11.34" y2="18.95"/><line class="cls-1" x1="28.36" y1="12.74" x2="28.36" y2="18.95"/><line class="cls-1" x1="29.9" y1="12.74" x2="29.9" y2="18.95"/><circle class="cls-2" cx="15.98" cy="15.84" r="3.1"/><circle class="cls-2" cx="23.72" cy="15.84" r="3.1"/></g><g id="Laag_17"><line class="cls-1" x1="11.34" y1="4.77" x2="11.34" y2="10.97"/><line class="cls-1" x1="20.62" y1="4.77" x2="20.62" y2="10.97"/><line class="cls-1" x1="22.16" y1="4.77" x2="22.16" y2="10.97"/><circle class="cls-2" cx="15.98" cy="7.87" r="3.1"/><circle class="cls-2" cx="26.8" cy="7.87" r="3.1"/></g></symbol></defs><g id="Text"><use width="41.05" height="31.88" transform="translate(41.71 106.95) scale(6.02)" xlink:href="#Computer_back_5"/></g></svg>