<?xml version="1.0" encoding="UTF-8"?><svg id="logo_2MW" xmlns="http://www.w3.org/2000/svg" viewBox="0 0 2058.13 442.2"><defs><style>.cls-1{stroke-linecap:square;}.cls-1,.cls-2{fill:none;stroke:blue;stroke-width:20px;}</style></defs><g id="Blue"><g id="letters"><g id="T"><polyline class="cls-2" points="314.71 425.2 314.71 221.1 612.35 51.02"/><line class="cls-2" x1="314.71" y1="221.1" x2="17.08" y2="51.02"/><polygon class="cls-1" points="552.82 17 314.71 153.07 76.68 17.05 17.08 51.02 17.08 119.05 255.2 255.1 255.19 391.16 314.71 425.19 374.24 391.18 374.24 255.09 612.35 119.05 612.35 51.02 552.82 17"/></g><g id="M"><polyline class="cls-2" points="1207.74 187.08 1267.26 153.07 1267.26 425.19"/><polyline class="cls-2" points="791.04 425.17 791.04 153.07 850.57 187.08"/><polyline class="cls-2" points="1326.79 51.02 1029.15 221.1 731.52 51.02"/><line class="cls-2" x1="1029.15" y1="221.1" x2="1029.15" y2="289.11"/><polygon class="cls-2" points="1029.15 289.11 850.57 187.08 850.57 391.16 850.55 391.17 791.04 425.17 731.52 391.16 731.52 51.02 791.12 17.05 850.57 51.02 1029.15 153.13 1029.21 153.1 1267.26 17 1326.79 51.02 1326.79 391.16 1267.26 425.17 1207.74 391.17 1207.74 187.08 1029.15 289.11"/></g><g id="W"><polygon class="cls-2" points="1564.59 51.02 1564.59 323.14 1743.17 221.1 1802.68 255.1 1921.76 323.14 1921.76 51.02 1981.28 17 2040.81 51.02 2040.81 391.17 1981.28 425.19 1743.17 289.13 1505.06 425.17 1445.54 391.16 1445.54 51.02 1505.14 17.05 1564.57 51.01 1564.59 51.02 1564.59 255.11 1564.59 51.02"/><polyline class="cls-2" points="1564.59 255.11 1743.17 153.07 1802.68 187.07 1921.76 255.11"/><line class="cls-2" x1="1505.06" y1="85.03" x2="1505.06" y2="425.17"/><polyline class="cls-2" points="1445.54 51.02 1505.06 85.03 1564.59 51.02"/><line class="cls-2" x1="1981.28" y1="85.03" x2="1981.28" y2="425.17"/><polyline class="cls-2" points="1921.76 51.02 1981.28 85.03 2040.81 51.02"/><line class="cls-2" x1="1743.17" y1="289.13" x2="1743.17" y2="221.1"/></g></g></g></svg>