<?xml version="1.0" encoding="UTF-8"?><svg id="Website" xmlns="http://www.w3.org/2000/svg" xmlns:xlink="http://www.w3.org/1999/xlink" viewBox="0 0 328.88 318.74"><defs><style>.cls-1{fill:#ff8c00;}.cls-1,.cls-2,.cls-3,.cls-4{stroke-width:0px;}.cls-2,.cls-3{fill:#dc5a46;}.cls-3{opacity:.25;}.cls-4{fill:#fff;}</style><symbol id="Sad_face" viewBox="0 0 91.93 133.9"><use width="91.93" height="133.9" xlink:href="#face"/><g id="expression"><path class="cls-2" d="M45.6,84.64h0c4.84,0,8.77,3.93,8.77,8.77h0s-17.54,0-17.54,0h0c0-4.84,3.93-8.77,8.77-8.77Z"/></g></symbol><symbol id="face" viewBox="0 0 91.93 133.9"><g id="Neck"><rect class="cls-1" x="30.83" y="97.87" width="29.84" height="36.04"/><polygon class="cls-2" points="30.83 133.9 30.83 97.87 60.68 97.87 30.83 133.9"/></g><g id="Face"><path class="cls-1" d="M14.47,31.56h61.61v41.59c0,17-13.8,30.8-30.8,30.8h0c-17,0-30.8-13.8-30.8-30.8V31.56h0Z"/><path class="cls-1" d="M14.47,31.56h61.61v41.59c0,17-13.8,30.8-30.8,30.8h0c-17,0-30.8-13.8-30.8-30.8V31.56h0Z"/><path class="cls-3" d="M64.13,31.56v41.59c0,14.97-10.68,27.44-24.83,30.22,1.93.38,3.93.58,5.97.58h0c17.01,0,30.8-13.79,30.8-30.8V31.56h-11.95Z"/></g><g id="Hair"><circle class="cls-4" cx="70.43" cy="31.56" r="21.5"/><circle class="cls-4" cx="14.47" cy="31.56" r="14.47"/><circle class="cls-4" cx="37.26" cy="17.88" r="17.88"/><circle class="cls-4" cx="48.94" cy="33.58" r="18.13"/></g><g id="Clothing"><polygon class="cls-4" points="45.75 133.9 22.55 133.9 22.55 109.81 38.86 109.81 45.75 133.9"/><polygon class="cls-4" points="45.75 133.9 68.95 133.9 68.95 109.81 52.65 109.81 45.75 133.9"/></g></symbol></defs><g id="Layer_35"><use width="91.93" height="133.9" transform="translate(115.1 14.79) scale(2.16)" xlink:href="#Sad_face"/></g></svg>