<?xml version="1.0" encoding="UTF-8"?><svg id="Website" xmlns="http://www.w3.org/2000/svg" viewBox="0 0 328.88 318.74"><defs><style>.cls-1{fill:#ff8c00;}.cls-1,.cls-2{stroke-width:0px;}.cls-2{fill:#fff;}</style></defs><g id="Layer_35"><path class="cls-2" d="M18.3,119.68c0,7.34,2.8,14.67,8.39,20.27l40.53,40.53,40.52-40.52c11.19-11.19,11.19-29.33,0-40.52-5.6-5.6-12.93-8.39-20.27-8.39-7.33,0-14.66,2.79-20.26,8.39-5.6-5.6-12.93-8.39-20.27-8.39-7.33,0-14.66,2.79-20.26,8.39-5.6,5.6-8.39,12.93-8.39,20.26Z"/><path class="cls-1" d="M72.3,151.06c0,3.29,1.25,6.57,3.76,9.08l18.16,18.16,18.15-18.15c5.01-5.01,5.01-13.14,0-18.15-2.51-2.51-5.79-3.76-9.08-3.76-3.28,0-6.57,1.25-9.08,3.76-2.51-2.51-5.79-3.76-9.08-3.76-3.28,0-6.57,1.25-9.08,3.76-2.51,2.51-3.76,5.79-3.76,9.08Z"/></g></svg>