<?xml version="1.0" encoding="UTF-8"?><svg id="Figures" xmlns="http://www.w3.org/2000/svg" xmlns:xlink="http://www.w3.org/1999/xlink" viewBox="0 0 328.88 318.74"><defs><style>.cls-1{fill:#ff8c00;}.cls-1,.cls-2{stroke-width:0px;}.cls-3{fill:none;stroke:#fff;stroke-miterlimit:10;}.cls-2{fill:#fff;}</style><symbol id="Luidspreker_2" viewBox="0 0 28.02 24.24"><path class="cls-2" d="M9.52,21.85c1.71,1.44-2.18,3.08-3.59,2.08-2.46-1.75-3.96-9.64-3.96-9.64h4.69s-.64,4.63,2.87,7.56Z"/><path class="cls-3" d="M8.24,14.44v1.44c0,.66-.54,1.2-1.2,1.2h-1.73"/><path class="cls-1" d="M6.65,14.29H1.97s.53,2.75,1.46,5.37l3.26-3.26c-.15-1.23-.03-2.11-.03-2.11Z"/><path class="cls-2" d="M2.42,6.98h6.8v7.45H2.42c-1.34,0-2.42-1.09-2.42-2.42v-2.61c0-1.34,1.09-2.42,2.42-2.42Z"/><path class="cls-2" d="M24.06.06l-14.83,6.92v7.45l14.83,6.92s.03,0,.04,0V.05s-.03,0-.04,0Z"/><path class="cls-2" d="M2.42,6.98h6.8v7.45H2.42c-1.34,0-2.42-1.09-2.42-2.42v-2.61c0-1.34,1.09-2.42,2.42-2.42Z"/><path class="cls-1" d="M25.54,20.32V1.1c0-.75-.73-1.27-1.44-1.05v21.31c.71.23,1.44-.3,1.44-1.05Z"/><path class="cls-2" d="M27.1,8.43l-1.56-.09v4.75l1.56-.09c.52-.03.92-.46.92-.98v-2.6c0-.52-.4-.95-.92-.98Z"/><path class="cls-1" d="M5.13,9.7H1.97c-.28,0-.5-.22-.5-.5s.22-.5.5-.5h3.16c.28,0,.5.22.5.5s-.22.5-.5.5Z"/><path class="cls-1" d="M5.13,11.21H1.97c-.28,0-.5-.22-.5-.5s.22-.5.5-.5h3.16c.28,0,.5.22.5.5s-.22.5-.5.5Z"/><path class="cls-1" d="M25.54,9.06v4.03l1.56-.09c.52-.03.92-.46.92-.98v-.47l-2.48-2.48Z"/></symbol></defs><g id="Text"><use width="28.02" height="24.24" transform="translate(12.58 34.28) scale(11.06)" xlink:href="#Luidspreker_2"/></g></svg>